<svg width="30" height="30" version="1.1" xmlns="http://www.w3.org/2000/svg">
  <path xmlns="http://www.w3.org/2000/svg" d="M15.375383528127117,23.72153857439756 c-5.150769256353378,0 -9.346153892576694,-4.1953846362233165 -9.346153892576694,-9.346153892576694 c0,-1.8276923167705545 0.5400000026822095,-3.5307692483067514 1.433076930195094,-4.9638461785018455 l12.876923140883447,12.876923140883447 c-1.433076930195094,0.9138461583852775 -3.136153861731291,1.433076930195094 -4.9638461785018455,1.433076930195094 m9.346153892576694,-9.346153892576694 c0,1.8276923167705545 -0.5400000026822095,3.5307692483067514 -1.433076930195094,4.9638461785018455 l-12.876923140883447,-12.876923140883447 c1.433076930195094,-0.9138461583852775 3.136153861731291,-1.433076930195094 4.9638461785018455,-1.433076930195094 c5.150769256353378,0 9.346153892576694,4.1953846362233165 9.346153892576694,9.346153892576694 M15.499998913361473,1 a13.500000067055225,13.500000067055225 0 1 0 0,27.00000013411045 a13.500000067055225,13.500000067055225 0 0 0 0,-27.00000013411045"/>
</svg>