<svg viewBox="0 0 1024 1024" version="1.1" xmlns="http://www.w3.org/2000/svg">
  <path d="M830.198 830.198C745.204 915.192 632.2 962 512 962c-120.2 0-233.204-46.808-318.198-131.802C108.808 745.204 62 632.2 62 512h108c0 188.58 153.42 342 342 342s342-153.42 342-342S700.58 170 512 170c-94.292 0-179.748 38.396-241.664 100.336L408 408H80V80l113.802 113.802C278.796 108.808 391.8 62 512 62c120.2 0 233.204 46.808 318.198 131.802C915.192 278.796 962 391.8 962 512c0 120.2-46.808 233.204-131.802 318.198z"></path>
</svg>