<svg width="30" height="30" version="1.1" xmlns="http://www.w3.org/2000/svg">
  <path d="M21.29800502950607,18.45285973825574 h-1.2817622857724371 l-0.4548188755966737,-0.4382800073931615 a10.508383384808539,10.508383384808539 0 0 0 2.5490530618667977,-6.867765021509734 a10.555932630893647,10.555932630893647 0 1 0 -10.555932630893647,10.553865272368208 a10.508383384808539,10.508383384808539 0 0 0 6.869832380035174,-2.5490530618667977 l0.4382800073931615,0.4548188755966737 v1.2817622857724371 l8.11851692940058,8.104045419722503 l2.4188094747641142,-2.4188094747641142 zm-9.743460730395958,0 a7.2977755948011325,7.2977755948011325 0 0 1 -7.306045028902888,-7.306045028902888 a7.2977755948011325,7.2977755948011325 0 0 1 7.306045028902888,-7.308112387428329 a7.2977755948011325,7.2977755948011325 0 0 1 7.308112387428329,7.308112387428329 a7.2977755948011325,7.2977755948011325 0 0 1 -7.308112387428329,7.306045028902888 z"/>
</svg>